<svg id="Group_18" data-name="Group 18" xmlns="http://www.w3.org/2000/svg" viewBox="1757.634 23.56 42.638 37.224">
  <defs>
    <style>
      .cls-1 {
        fill: #979797;
      }

      .cls-1, .cls-2 {
        stroke: #969696;
        stroke-miterlimit: 10;
        stroke-width: 2px;
      }

      .cls-2 {
        fill: #fbfbfb;
      }
    </style>
  </defs>
  <g id="Group_1" data-name="Group 1" transform="translate(1758.634 24.56)">
    <path id="Path_1" data-name="Path 1" class="cls-1" d="M28.878,33.531a25.8,25.8,0,0,0,2.95-.181,2.13,2.13,0,0,1,1.686.542,15.763,15.763,0,0,0,6.2,3.974,15.636,15.636,0,0,1-1.686-5,2.047,2.047,0,0,1,.963-1.987c4.455-2.589,6.984-6.5,6.984-10.716C45.976,12.76,38.33,6.8,28.938,6.8S11.9,12.82,11.9,20.165s7.586,13.365,16.978,13.365Z" transform="translate(-5.338 -3.308)"/>
    <path id="Path_2" data-name="Path 2" class="cls-2" d="M18.038,27.791a25.8,25.8,0,0,1-2.95-.181,2.13,2.13,0,0,0-1.686.542,15.763,15.763,0,0,1-6.2,3.974,15.636,15.636,0,0,0,1.686-5,2.047,2.047,0,0,0-.963-1.987C3.529,22.553,1,18.64,1,14.365,1,7.02,8.646,1,18.038,1S35.076,7.02,35.076,14.365,27.43,27.791,18.038,27.791Z" transform="translate(-1 -1)"/>
  </g>
</svg>
