<?xml version="1.0" encoding="iso-8859-1"?>
<!-- Generator: Adobe Illustrator 19.0.0, SVG Export Plug-In . SVG Version: 6.00 Build 0)  -->
<svg xmlns="http://www.w3.org/2000/svg" xmlns:xlink="http://www.w3.org/1999/xlink" version="1.1" id="Capa_1" x="0px" y="0px" viewBox="0 0 513.52 513.52" style="enable-background:new 0 0 513.52 513.52;" xml:space="preserve" width="512px" height="512px">
<g>
	<g>
		<g>
			<path d="M421.88,0L192.52,229.408L162.36,350.08l120.688-30.16L417.08,185.872V383.36h-224v61.84l-74.208-61.84H33.08v-288h128     v-32h-160v352h106.208l117.792,98.16v-98.16h224V153.872l63.36-63.312L421.88,0z M206.328,306.096l9.312-37.216l27.92,27.92     L206.328,306.096z M274.856,282.848l-45.248-45.264L376.68,90.56l45.2,45.2L274.856,282.848z M444.568,113.136l-45.264-45.248     l22.576-22.64l45.312,45.312L444.568,113.136z" fill="#FFFFFF"/>
			<rect x="65.08" y="127.36" width="160" height="32" fill="#FFFFFF"/>
			<rect x="65.08" y="191.36" width="96" height="32" fill="#FFFFFF"/>
			<rect x="65.08" y="255.36" width="64" height="32" fill="#FFFFFF"/>
			<rect x="65.08" y="319.36" width="64" height="32" fill="#FFFFFF"/>
			<rect x="257.08" y="63.36" width="32" height="32" fill="#FFFFFF"/>
			<rect x="193.08" y="63.36" width="32" height="32" fill="#FFFFFF"/>
		</g>
	</g>
</g>
<g>
</g>
<g>
</g>
<g>
</g>
<g>
</g>
<g>
</g>
<g>
</g>
<g>
</g>
<g>
</g>
<g>
</g>
<g>
</g>
<g>
</g>
<g>
</g>
<g>
</g>
<g>
</g>
<g>
</g>
</svg>
