<svg id="Group_17" data-name="Group 17" xmlns="http://www.w3.org/2000/svg" viewBox="712 337 84.084 83.156">
  <defs>
    <style>
      .cls-1 {
        fill: #df232f;
      }

      .cls-2 {
        fill: #f9f9f9;
      }

      .cls-3 {
        fill: #fff;
      }
    </style>
  </defs>
  <g id="magnifying-glass_1_" data-name="magnifying-glass (1)" transform="translate(712 337)">
    <path id="Path_12" data-name="Path 12" class="cls-1" d="M69.747,8.632A29.279,29.279,0,0,0,48.907,0h0A29.49,29.49,0,0,0,23.538,44.5L2.087,65.949a7.126,7.126,0,0,0,0,10.078l.266.266a7.126,7.126,0,0,0,10.078,0L33.882,54.842A29.479,29.479,0,0,0,69.747,8.632ZM8.832,72.694a2.037,2.037,0,0,1-2.88,0l-.266-.266a2.036,2.036,0,0,1,0-2.88L26.551,48.683q.723.839,1.515,1.631T29.7,51.829ZM66.148,46.715A24.383,24.383,0,0,1,31.665,12.232,24.383,24.383,0,1,1,66.148,46.715Z" transform="translate(0 0)"/>
  </g>
  <g id="Group_15" data-name="Group 15" transform="translate(746.744 367.077)">
    <g id="Group_12" data-name="Group 12">
      <g id="Shield_3_">
        <g id="Group_11" data-name="Group 11">
          <path id="Path_14" data-name="Path 14" class="cls-2" d="M46.694,10.976A52.812,52.812,0,0,1,26.3.574a2.626,2.626,0,0,0-3.277,0,52.919,52.919,0,0,1-20.4,10.4A3.382,3.382,0,0,0,0,14.164V19.9C.429,34.375,10.049,47.315,24.67,53.08,39.292,47.305,48.911,34.366,49.34,19.9V14.164A3.4,3.4,0,0,0,46.694,10.976Zm-2.838,8.847C43.481,31.546,36.042,42.2,24.67,47.568,13.3,42.211,5.85,31.556,5.485,19.822V15.389A59.279,59.279,0,0,0,24.67,5.882a59.084,59.084,0,0,0,19.185,9.508Z"/>
        </g>
      </g>
    </g>
    <rect id="Rectangle_1" data-name="Rectangle 1" class="cls-3" width="38.571" height="35.552" transform="translate(5.796 9.167)"/>
    <g id="Group_14" data-name="Group 14" transform="translate(3.258 4.18)">
      <g id="Shield_2_">
        <g id="Group_13" data-name="Group 13">
          <path id="Path_15" data-name="Path 15" class="cls-1" d="M76.224,52.3a46.311,46.311,0,0,1-17.7-8.817,2.315,2.315,0,0,0-2.838,0,46.246,46.246,0,0,1-17.7,8.817,2.89,2.89,0,0,0-2.291,2.7v4.861c.374,12.269,8.716,23.244,21.4,28.144,12.686-4.9,21.038-15.866,21.4-28.144V55.006A2.862,2.862,0,0,0,76.224,52.3Zm-2.464,7.505c-.319,9.945-6.781,18.976-16.648,23.526-9.866-4.55-16.328-13.581-16.648-23.526V56.046a51.885,51.885,0,0,0,16.648-8.059,51.684,51.684,0,0,0,16.648,8.059Z" transform="translate(-35.7 -43)"/>
        </g>
      </g>
    </g>
  </g>
</svg>
